<?xml version="1.0" standalone="no"?>
<!DOCTYPE svg PUBLIC "-//W3C//DTD SVG 20010904//EN"
 "http://www.w3.org/TR/2001/REC-SVG-20010904/DTD/svg10.dtd">
<svg version="1.0" xmlns="http://www.w3.org/2000/svg"
 width="2000.000000pt" height="2000.000000pt" viewBox="0 0 2000.000000 2000.000000"
 preserveAspectRatio="xMidYMid meet">
<metadata>
Created by potrace 1.16, written by Peter Selinger 2001-2019
</metadata>
<g transform="translate(0.000000,2000.000000) scale(0.100000,-0.100000)"
fill="#000000" stroke="none">
<path d="M6611 11189 c-442 -55 -756 -375 -836 -851 -21 -126 -21 -364 -1
-491 70 -434 336 -743 722 -839 114 -28 368 -32 479 -6 301 69 539 266 661
548 78 179 110 377 101 610 -23 539 -309 917 -769 1015 -89 19 -264 26 -357
14z m303 -50 c85 -29 141 -65 211 -134 193 -192 288 -492 288 -915 0 -277 -32
-459 -115 -658 -124 -299 -381 -463 -644 -413 -277 53 -468 305 -546 721 -32
165 -32 530 0 701 73 398 264 653 533 714 80 18 191 11 273 -16z"/>
<path d="M4080 11155 c0 -11 11 -15 38 -15 21 0 48 -7 60 -16 l22 -15 0 -1018
c0 -973 -1 -1019 -18 -1034 -11 -10 -36 -17 -60 -17 -31 0 -42 -4 -42 -15 0
-13 38 -15 280 -15 242 0 280 2 280 15 0 11 -12 15 -44 15 -48 0 -72 16 -81
53 -3 12 -4 229 -3 482 l3 460 263 0 264 0 29 -33 c23 -25 29 -42 29 -77 0
-33 4 -45 15 -45 13 0 15 26 15 170 0 137 -3 170 -14 170 -9 0 -15 -17 -18
-52 -4 -40 -11 -57 -32 -75 -27 -23 -30 -23 -292 -23 l-265 0 3 516 3 516 24
19 c24 19 39 20 380 17 347 -3 357 -4 406 -26 64 -30 129 -93 154 -151 15 -35
51 -235 51 -283 0 -4 7 -8 15 -8 8 0 15 5 15 11 0 14 -49 412 -56 457 l-5 32
-709 0 c-624 0 -710 -2 -710 -15z"/>
<path d="M8000 11156 c0 -12 10 -16 38 -16 21 0 48 -7 60 -16 l22 -15 0 -1018
c0 -973 -1 -1019 -18 -1034 -11 -10 -36 -17 -60 -17 -31 0 -42 -4 -42 -15 0
-13 38 -15 280 -15 242 0 280 2 280 15 0 11 -11 15 -42 15 -90 0 -88 -9 -88
474 l0 416 118 0 c194 0 297 -38 418 -152 96 -92 123 -133 289 -453 114 -219
146 -274 174 -292 32 -22 43 -23 227 -23 166 0 194 2 194 15 0 10 -10 15 -27
15 -39 0 -88 33 -116 77 -13 21 -75 137 -137 258 -121 235 -174 323 -242 400
-43 49 -179 145 -204 145 -8 0 -14 4 -14 9 0 4 26 11 58 14 116 13 250 76 331
158 125 125 188 335 162 539 -34 262 -180 436 -426 507 -53 15 -129 17 -647
21 -527 3 -588 2 -588 -12z m950 -40 c213 -61 357 -218 395 -433 60 -335 -105
-621 -405 -700 -52 -13 -111 -17 -285 -17 l-220 -1 0 568 0 569 25 20 c24 19
35 20 230 15 142 -3 222 -10 260 -21z"/>
<path d="M10050 11155 c0 -11 11 -15 38 -15 21 0 48 -7 60 -16 l22 -15 0
-1018 c0 -973 -1 -1019 -18 -1034 -11 -10 -36 -17 -60 -17 -31 0 -42 -4 -42
-15 0 -13 38 -15 280 -15 242 0 280 2 280 15 0 11 -12 15 -44 15 -48 0 -72 16
-81 53 -3 12 -4 229 -3 482 l3 460 263 0 264 0 29 -33 c23 -25 29 -42 29 -77
0 -33 4 -45 15 -45 13 0 15 26 15 170 0 137 -3 170 -14 170 -9 0 -15 -17 -18
-52 -4 -40 -11 -57 -32 -75 -27 -23 -30 -23 -292 -23 l-265 0 3 516 3 516 24
19 c24 19 39 20 380 17 347 -3 357 -4 406 -26 64 -30 129 -93 154 -151 15 -35
51 -235 51 -283 0 -4 7 -8 15 -8 8 0 15 5 15 11 0 14 -49 412 -56 457 l-5 32
-709 0 c-624 0 -710 -2 -710 -15z"/>
<path d="M11710 11155 c0 -11 11 -15 38 -15 21 0 48 -7 60 -16 l22 -15 0
-1018 c0 -973 -1 -1019 -18 -1034 -11 -10 -36 -17 -60 -17 -31 0 -42 -4 -42
-15 0 -13 87 -15 725 -15 l724 0 6 33 c5 29 55 440 55 452 0 3 -7 5 -15 5 -8
0 -15 -1 -15 -3 0 -32 -34 -234 -46 -269 -21 -64 -82 -130 -146 -159 -52 -24
-57 -24 -423 -27 -203 -2 -379 -1 -391 2 -42 11 -44 33 -44 541 l0 485 264 0
c262 0 265 0 292 -23 21 -18 28 -35 32 -75 3 -35 9 -52 18 -52 11 0 14 33 14
170 0 137 -3 170 -14 170 -9 0 -15 -17 -18 -51 -4 -38 -12 -58 -32 -77 l-26
-27 -263 0 -262 0 0 498 0 499 24 19 c24 19 39 20 380 17 347 -3 357 -4 406
-26 64 -30 129 -93 154 -151 15 -35 51 -235 51 -283 0 -4 7 -8 15 -8 8 0 15 5
15 11 0 14 -49 412 -56 457 l-5 32 -709 0 c-624 0 -710 -2 -710 -15z"/>
<path d="M13470 11155 c0 -11 11 -15 38 -15 21 0 48 -7 60 -16 l22 -15 0
-1018 c0 -973 -1 -1019 -18 -1034 -11 -10 -36 -17 -60 -17 -31 0 -42 -4 -42
-15 0 -13 38 -15 280 -15 242 0 280 2 280 15 0 11 -12 15 -44 15 -48 0 -72 16
-81 53 -3 12 -4 469 -3 1015 l3 994 24 19 c14 12 39 19 63 19 27 0 38 4 36 13
-4 9 -71 13 -281 15 -242 2 -277 0 -277 -13z"/>
<path d="M14275 11148 c-4 -18 -39 -295 -58 -453 -1 -12 4 -20 13 -20 10 0 18
30 32 120 10 66 25 138 33 161 23 61 78 119 143 151 55 27 62 28 249 31 183 4
192 3 212 -17 l21 -21 0 -1013 c0 -970 -1 -1015 -18 -1030 -11 -10 -36 -17
-60 -17 -31 0 -42 -4 -42 -15 0 -13 37 -15 275 -15 238 0 275 2 275 15 0 11
-11 15 -40 15 -27 0 -47 7 -60 20 -20 20 -20 33 -20 1029 l0 1010 26 20 c25
19 40 21 188 21 181 0 257 -14 316 -57 82 -61 106 -112 131 -276 10 -73 19
-133 19 -134 0 -2 7 -3 16 -3 13 0 15 7 10 38 -6 36 -56 447 -56 457 0 3 -360
5 -800 5 l-800 0 -5 -22z"/>
<path d="M7040 8470 l0 -30 2965 0 2965 0 0 30 0 30 -2965 0 -2965 0 0 -30z"/>
</g>
</svg>
